IKResults
version=1
nRows=51
nColumns=8
inDegrees=yes

Units are S.I. units (second, meters, Newtons, ...)
If the header above contains a line with 'inDegrees', this indicates whether rotational values are in degrees (yes) or radians (no).

endheader
time	Shank_rx	Shank_ry	Shank_rz	Shank_tx	Shank_ty	Shank_tz	Rfoot_rz
      0.00000000	     -3.61167588	      3.63282178	     10.31983734	     -0.30499580	      0.28295386	     -0.62413433	    -11.16939652
      0.01000000	     -3.60667554	      3.64204660	     10.31679960	     -0.30496314	      0.28298419	     -0.62410530	    -11.16972572
      0.02000000	     -3.60683742	      3.64207004	     10.31671244	     -0.30496864	      0.28295560	     -0.62408639	    -11.16972409
      0.03000000	     -3.60662892	      3.64210772	     10.31672516	     -0.30496547	      0.28295078	     -0.62410566	    -11.16973996
      0.04000000	     -3.61244058	      3.63245960	     10.31299471	     -0.30495407	      0.28297425	     -0.62414466	    -11.17144653
      0.05000000	     -3.62171005	      3.66677931	     10.31136548	     -0.30493103	      0.28296406	     -0.62411076	    -11.16946507
      0.06000000	     -3.62723575	      3.65317352	     10.32030574	     -0.30497631	      0.28294159	     -0.62415936	    -11.16270464
      0.07000000	     -3.63379725	      3.63530356	     10.31458877	     -0.30496794	      0.28293461	     -0.62422959	    -11.16908223
      0.08000000	     -3.63402756	      3.63532416	     10.31490709	     -0.30493794	      0.28295092	     -0.62421405	    -11.16904026
      0.09000000	     -3.67242637	      3.65765953	     10.31433319	     -0.30492990	      0.28292849	     -0.62431020	    -11.16808253
      0.10000000	     -3.67896636	      3.62604593	     10.31576765	     -0.30494720	      0.28291394	     -0.62441337	    -11.16856832
      0.11000000	     -3.68852145	      3.64557746	     10.31788428	     -0.30494100	      0.28292161	     -0.62442661	    -11.17211866
      0.12000000	     -3.68869311	      3.64550865	     10.31785659	     -0.30494560	      0.28292088	     -0.62441037	    -11.17211491
      0.13000000	     -3.69095506	      3.63803587	     10.32311268	     -0.30495548	      0.28289463	     -0.62443973	    -11.16784305
      0.14000000	     -3.68853449	      3.63884512	     10.31907497	     -0.30496507	      0.28293429	     -0.62442941	    -11.17344274
      0.15000000	     -3.69175162	      3.66440655	     10.32203532	     -0.30493919	      0.28291437	     -0.62434791	    -11.17251554
      0.16000000	     -3.69160231	      3.64917269	     10.32255718	     -0.30495705	      0.28291470	     -0.62439254	    -11.17500880
      0.17000000	     -3.68480412	      3.63497812	     10.31774342	     -0.30497919	      0.28293346	     -0.62440293	    -11.18113184
      0.18000000	     -3.65453403	      3.62592426	     10.31430091	     -0.30493807	      0.28293606	     -0.62427667	    -11.17415490
      0.19000000	     -3.65361604	      3.64868115	     10.32275977	     -0.30494308	      0.28290893	     -0.62422785	    -11.16835940
      0.20000000	     -3.66638598	      3.64224962	     10.32059570	     -0.30496552	      0.28291450	     -0.62427777	    -11.17238031
      0.21000000	     -3.66274127	      3.65634266	     10.31657147	     -0.30494688	      0.28294111	     -0.62423905	    -11.17420333
      0.22000000	     -3.66257655	      3.63962755	     10.32030186	     -0.30494915	      0.28291100	     -0.62426022	    -11.17228207
      0.23000000	     -3.62799258	      3.62005688	     10.32394442	     -0.30498668	      0.28293019	     -0.62415745	    -11.17767722
      0.24000000	     -3.62236428	      3.63626719	     10.31824580	     -0.30494868	      0.28296639	     -0.62411296	    -11.18331167
      0.25000000	     -3.62227802	      3.63623855	     10.31843481	     -0.30492987	      0.28294773	     -0.62411989	    -11.18330352
      0.26000000	     -3.61915734	      3.62994500	     10.32545667	     -0.30497804	      0.28293245	     -0.62409928	    -11.17923347
      0.27000000	     -3.58155840	      3.60633948	     10.31566446	     -0.30495981	      0.28296522	     -0.62399819	    -11.17476191
      0.28000000	     -3.58340127	      3.62749849	     10.31376000	     -0.30492947	      0.28298071	     -0.62396571	    -11.17488903
      0.29000000	     -3.58521845	      3.64296641	     10.31484628	     -0.30493192	      0.28293933	     -0.62393702	    -11.17128309
      0.30000000	     -3.59113981	      3.61573119	     10.31040256	     -0.30493570	      0.28295812	     -0.62400595	    -11.17604510
      0.31000000	     -3.58769530	      3.62476504	     10.30498032	     -0.30491525	      0.28299293	     -0.62398475	    -11.17905728
      0.32000000	     -3.57707695	      3.65349506	     10.30846249	     -0.30491065	      0.28297093	     -0.62387285	    -11.17223422
      0.33000000	     -3.58341355	      3.62460724	     10.30721252	     -0.30490728	      0.28294844	     -0.62396244	    -11.17223737
      0.34000000	     -3.56139726	      3.60037246	     10.30562155	     -0.30491968	      0.28299709	     -0.62391059	    -11.17328033
      0.35000000	     -3.54973062	      3.62082083	     10.29706022	     -0.30486961	      0.28301983	     -0.62383291	    -11.17767831
      0.36000000	     -3.56517921	      3.63987577	     10.29249315	     -0.30483247	      0.28296794	     -0.62388220	    -11.17162397
      0.37000000	     -3.57334156	      3.61748242	     10.29726391	     -0.30488068	      0.28296258	     -0.62392728	    -11.16628030
      0.38000000	     -3.56425053	      3.62311847	     10.28421046	     -0.30482247	      0.28302632	     -0.62390323	    -11.17367718
      0.39000000	     -3.56090786	      3.63719636	     10.28955603	     -0.30481651	      0.28299552	     -0.62384799	    -11.16585219
      0.40000000	     -3.56948098	      3.61349337	     10.29105428	     -0.30483628	      0.28295320	     -0.62395068	    -11.16560503
      0.41000000	     -3.56359717	      3.61395203	     10.28353220	     -0.30483040	      0.28301358	     -0.62391429	    -11.16943515
      0.42000000	     -3.55006921	      3.63336645	     10.27925316	     -0.30479601	      0.28301765	     -0.62382351	    -11.16752911
      0.43000000	     -3.54978449	      3.63334849	     10.27935548	     -0.30478506	      0.28300195	     -0.62384777	    -11.16752547
      0.44000000	     -3.55166709	      3.60612908	     10.27828442	     -0.30480388	      0.28301594	     -0.62387235	    -11.16803162
      0.45000000	     -3.54278918	      3.61614404	     10.27190833	     -0.30476158	      0.28302626	     -0.62382132	    -11.17094314
      0.46000000	     -3.53122076	      3.63627447	     10.27857999	     -0.30475892	      0.28301221	     -0.62372993	    -11.16263775
      0.47000000	     -3.53008985	      3.61741554	     10.27463325	     -0.30478489	      0.28301149	     -0.62376866	    -11.16615997
      0.48000000	     -3.49276412	      3.61870105	     10.26648499	     -0.30475815	      0.28306677	     -0.62362837	    -11.16315787
      0.49000000	     -3.49649814	      3.60947520	     10.26622649	     -0.30473356	      0.28300911	     -0.62364013	    -11.15972050
      0.50000000	     -3.49165676	      3.63143270	     10.26833355	     -0.30475339	      0.28301788	     -0.62357300	    -11.15583477
